<svg width="24" height="24" viewBox="0 0 24 24" fill="none" xmlns="http://www.w3.org/2000/svg">
<path fill-rule="evenodd" clip-rule="evenodd" d="M0.645637 22.3565C0.285653 22.7286 0.285653 23.3192 0.645636 23.6913C1.02289 24.0813 1.64814 24.0813 2.0254 23.6913L5.93797 19.6469C7.75992 20.7104 9.83453 21.3033 12 21.3033C17.3636 21.3033 22.1698 17.6655 23.9599 12.2507C24.0134 12.0879 24.0134 11.9122 23.9599 11.7495C23.1141 9.19103 21.595 7.02929 19.6619 5.46054L23.3544 1.64362C23.7143 1.2715 23.7143 0.680948 23.3544 0.308834C22.9771 -0.0811347 22.3519 -0.0811347 21.9746 0.308834L18.062 4.35325C16.2401 3.28977 14.1655 2.6968 12 2.6968C6.63638 2.6968 1.83017 6.33466 0.0401073 11.7495C-0.0133691 11.9122 -0.0133691 12.0879 0.0401073 12.2507C0.885892 14.8091 2.40502 16.9708 4.33813 18.5396L0.645637 22.3565ZM7.0448 18.5028C8.55496 19.3079 10.2438 19.7528 12 19.7528C16.6392 19.7528 20.809 16.6479 22.4548 12.0001C21.6686 9.77987 20.3065 7.91177 18.5925 6.56597L15.7889 9.46399C16.2521 10.1939 16.5215 11.0652 16.5215 12.0001C16.5215 14.5652 14.4932 16.6517 11.9998 16.6517C11.0988 16.6517 10.2586 16.3793 9.55279 15.9103L7.0448 18.5028ZM8.21081 14.5364L5.40753 17.4342C3.69347 16.0884 2.3314 14.2203 1.54524 12.0001C3.19103 7.35221 7.3608 4.24735 12 4.24735C13.7562 4.24735 15.445 4.69227 16.9552 5.49738L14.447 8.09005C13.7412 7.62094 12.9009 7.34843 11.9998 7.34843C9.50635 7.34843 7.47803 9.43502 7.47803 12.0001C7.47803 12.935 7.74752 13.8065 8.21081 14.5364ZM10.6522 14.7738C11.0579 14.9832 11.5157 15.1011 11.9998 15.1011C13.6623 15.1011 15.0142 13.7103 15.0142 12.0001C15.0142 11.4967 14.8972 11.0211 14.6895 10.6004L10.6522 14.7738ZM13.3477 9.22647L9.31016 13.4C9.10243 12.9793 8.98529 12.5035 8.98529 12.0001C8.98529 10.2898 10.3372 8.89899 11.9998 8.89899C12.484 8.89899 12.9419 9.01697 13.3477 9.22647Z" fill="#0F194C"/>
</svg>
