<svg width="108" height="19" viewBox="0 0 108 19" fill="none" xmlns="http://www.w3.org/2000/svg">
<path d="M37.7649 16.1554C37.7649 16.6877 37.5757 17.1534 37.1344 17.486C36.7561 17.8852 36.2517 18.0182 35.7473 18.0182C35.3691 18.0182 35.0538 17.9517 34.8016 17.7521C34.4864 17.5525 34.2972 17.2864 34.1081 16.8872L33.0993 14.4922H25.7857L24.7139 16.8872C24.5248 17.2864 24.3356 17.5525 24.0204 17.7521C23.7051 17.9517 23.3899 18.0182 23.0747 18.0182C22.5703 18.0182 22.0659 17.8187 21.6876 17.486C21.2463 17.0868 21.0571 16.6877 21.0571 16.1554C21.0571 15.8893 21.1202 15.5566 21.2463 15.2905L27.2358 2.31717C27.425 1.91799 27.7402 1.58534 28.1185 1.31922C28.4968 1.11963 28.9381 0.986572 29.3795 0.986572C29.8208 0.986572 30.2622 1.11963 30.6404 1.31922C31.0187 1.51881 31.334 1.85146 31.5231 2.31717L37.5757 15.224C37.7018 15.5566 37.7649 15.8228 37.7649 16.1554ZM27.1728 11.1657H31.7123L29.4425 5.84326L27.1728 11.1657Z" fill="#0D007A"/>
<path d="M71.1808 17.4196C70.8655 17.0869 70.6764 16.5547 70.6764 15.8894V3.11565C70.6764 2.45035 70.8655 1.98464 71.1808 1.58546C71.496 1.25281 72.0004 1.05322 72.6309 1.05322H77.2334C78.9987 1.05322 80.5119 1.38587 81.8359 2.05117C83.0969 2.71647 84.1056 3.71442 84.7992 4.97849C85.4927 6.24256 85.808 7.77275 85.808 9.50253C85.808 11.2323 85.4927 12.7625 84.7992 14.0266C84.1056 15.2906 83.1599 16.2886 81.899 16.9539C80.638 17.6192 79.0618 17.9518 77.2964 17.9518H72.6939C71.9374 17.9518 71.496 17.8188 71.1808 17.4196ZM80.3858 13.2282C81.1424 12.4298 81.5837 11.1658 81.5837 9.50253C81.5837 7.83928 81.2054 6.64174 80.3858 5.84338C79.6292 5.04502 78.4313 4.64584 76.8551 4.64584H74.8376V14.4257H76.8551C78.4313 14.4257 79.6292 14.0266 80.3858 13.2282Z" fill="#0D007A"/>
<path d="M107.812 16.1554C107.812 16.6877 107.623 17.1534 107.181 17.486C106.803 17.8852 106.299 18.0182 105.794 18.0182C105.416 18.0182 105.101 17.9517 104.849 17.7521C104.533 17.5525 104.344 17.2864 104.155 16.8872L103.146 14.4922H95.8327L94.7609 16.8872C94.5718 17.2864 94.3826 17.5525 94.0674 17.7521C93.7521 17.9517 93.4369 18.0182 93.1217 18.0182C92.6173 18.0182 92.1129 17.8187 91.7346 17.486C91.2933 17.0868 91.1041 16.6877 91.1041 16.1554C91.1041 15.8893 91.1672 15.5566 91.2933 15.2905L97.2828 2.31717C97.472 1.91799 97.7872 1.58534 98.1655 1.31922C98.5438 1.11963 98.9851 0.986572 99.4265 0.986572C99.8678 0.986572 100.309 1.11963 100.687 1.31922C101.066 1.51881 101.381 1.85146 101.57 2.31717L107.56 15.2905C107.749 15.5566 107.812 15.8228 107.812 16.1554ZM97.2198 11.1657H101.759L99.4895 5.84326L97.2198 11.1657Z" fill="#0D007A"/>
<path d="M58.8879 18.7501C59.4553 18.7501 60.0227 18.617 60.5271 18.3509C61.8511 17.6856 62.6708 16.2885 62.6708 14.7583V1.71843C62.6708 0.787006 61.9772 0.0551758 61.0946 0.0551758C60.2119 0.0551758 59.5184 0.787006 59.5184 1.71843V14.6918C59.5184 15.091 59.2662 15.2905 59.1401 15.3571C59.014 15.4236 58.6987 15.4901 58.4465 15.2905L51.7004 9.4359C51.0069 8.83713 50.0611 8.97019 49.4937 9.70202C48.9263 10.4339 49.0524 11.4318 49.7459 12.0306L56.5551 17.8852C57.2486 18.4175 58.0683 18.7501 58.8879 18.7501Z" fill="url(#paint0_linear)"/>
<path d="M45.8992 18.75C46.7819 18.75 47.4754 18.0181 47.4754 17.0867V4.11338C47.4754 3.7142 47.7276 3.51461 47.8537 3.44808C47.9798 3.38155 48.295 3.31502 48.5472 3.51461L55.3564 9.36925C56.05 9.96802 56.9957 9.83496 57.5631 9.10313C58.1305 8.3713 58.0044 7.37335 57.3109 6.77458L50.5017 0.919939C49.3668 -0.0780112 47.7906 -0.277601 46.4666 0.387699C45.1426 1.053 44.323 2.45013 44.323 3.98032V16.9537C44.323 18.0181 45.0165 18.75 45.8992 18.75Z" fill="url(#paint1_linear)"/>
<path d="M14.9424 16.0888C14.9424 16.621 14.7533 17.1533 14.3119 17.5524C13.9336 17.9516 13.4293 18.2177 12.8618 18.2177C12.2944 18.2177 11.727 17.9516 11.2226 17.4194L4.41337 9.96802V15.9557C4.41337 16.6875 4.22423 17.2198 3.78289 17.619C3.4046 18.0181 2.83717 18.2177 2.14364 18.2177C1.45011 18.2177 0.945722 18.0181 0.567433 17.619C0.189144 17.2198 0 16.6875 0 15.9557V2.3836C0 1.7183 0.189144 1.11953 0.567433 0.720352C0.945722 0.321172 1.51316 0.121582 2.14364 0.121582C2.83717 0.121582 3.4046 0.321172 3.78289 0.720352C4.16118 1.11953 4.41337 1.7183 4.41337 2.3836V7.97212L11.1595 0.786882C11.6009 0.321172 12.0422 0.121582 12.6096 0.121582C13.114 0.121582 13.6184 0.321172 13.9967 0.720352C14.375 1.11953 14.6272 1.65177 14.6272 2.18401C14.6272 2.71625 14.375 3.24849 13.9336 3.7142L9.01589 8.83701L14.375 14.6251C14.7533 15.0243 14.9424 15.5565 14.9424 16.0888Z" fill="#0D007A"/>
<defs>
<linearGradient id="paint0_linear" x1="62.708" y1="9.41907" x2="49.1402" y2="9.41907" gradientUnits="userSpaceOnUse">
<stop offset="0.1968" stop-color="#08D3A6"/>
<stop offset="1" stop-color="#15DFBF"/>
</linearGradient>
<linearGradient id="paint1_linear" x1="57.8854" y1="9.41895" x2="44.3176" y2="9.41895" gradientUnits="userSpaceOnUse">
<stop offset="0.1968" stop-color="#4475FF"/>
<stop offset="0.4119" stop-color="#4C8FFF"/>
<stop offset="0.8006" stop-color="#5AB9FF"/>
<stop offset="1" stop-color="#5FC9FF"/>
</linearGradient>
</defs>
</svg>
