<svg width="24" height="24" viewBox="0 0 24 24" fill="none" xmlns="http://www.w3.org/2000/svg">
<path fill-rule="evenodd" clip-rule="evenodd" d="M0.0401073 12.2424C1.83017 17.4807 6.63638 21 12 21C17.3636 21 22.1698 17.4807 23.9599 12.2424C24.0134 12.085 24.0134 11.915 23.9599 11.7576C22.1698 6.51928 17.3636 3 12 3C6.63638 3 1.83017 6.51928 0.0401073 11.7576C-0.0133691 11.915 -0.0133691 12.085 0.0401073 12.2424ZM1.54524 12C3.19103 7.50366 7.3608 4.50001 12 4.50001C16.6392 4.50001 20.809 7.50366 22.4548 12C20.809 16.4963 16.6392 19.5 12 19.5C7.36075 19.5 3.19103 16.4963 1.54524 12ZM7.47803 12C7.47803 14.4814 9.50635 16.5 11.9998 16.5C14.4932 16.5 16.5215 14.4815 16.5215 12C16.5215 9.51852 14.4932 7.49999 11.9998 7.49999C9.50635 7.49999 7.47803 9.51856 7.47803 12ZM8.98529 12C8.98529 10.3455 10.3372 9 11.9998 9C13.6623 9 15.0142 10.3455 15.0142 12C15.0142 13.6545 13.6623 15 11.9998 15C10.3373 15 8.98529 13.6546 8.98529 12Z" fill="#0F194C"/>
</svg>
